# AST/ASF file generated using VICON BodyLanguage
# -----------------------------------------------
:version 1.10
:name VICON
:units
  mass 1.0
  length 0.45
  angle deg
:documentation
   .ast/.asf automatically generated from VICON data using
   VICON BodyBuilder and BodyLanguage model FoxedUp or BRILLIANT.MOD
:root
   order TX TY TZ RX RY RZ
   axis XYZ
   position 0 0 0  
   orientation 0 0 0 
:bonedata
  begin
     id 1 
     name lhipjoint
     direction 0.566809 -0.746272 0.349008 
     length 2.40479 
     axis 0 0 0  XYZ
  end
  begin
     id 2 
     name lfemur
     direction 0.34202 -0.939693 0  
     length 7.1578  
     axis 0 0 20  XYZ
    dof rx ry rz
    limits (-160.0 20.0)
           (-70.0 70.0)
           (-60.0 70.0)
  end
  begin
     id 3 
     name ltibia
     direction 0.34202 -0.939693 0   
     length 7.49137   
     axis 0 0 20   XYZ
    dof rx
    limits (-10.0 170.0)
  end
  begin
     id 4 
     name lfoot
     direction 0.0665746 -0.182912 0.980873   
     length 2.36784   
     axis -90 7.62852e-016 20   XYZ
    dof rx rz
    limits (-45.0 90.0)
           (-70.0 20.0)
  end
  begin
     id 5 
     name ltoes
     direction 1.53601e-011 -4.22058e-011 1   
     length 1.18966   
     axis -90 7.62852e-016 20   XYZ
    dof rx
    limits (-90.0 20.0)
  end
  begin
     id 6 
     name rhipjoint
     direction -0.550236 -0.756381 0.353735   
     length 2.37265  
     axis 0 0 0  XYZ 
  end
  begin
     id 7 
     name rfemur
     direction -0.34202 -0.939693 0   
     length 7.43386   
     axis 0 0 -20   XYZ
    dof rx ry rz
    limits (-160.0 20.0)
           (-70.0 70.0)
           (-70.0 60.0)
  end
  begin
     id 8 
     name rtibia
     direction -0.34202 -0.939693 0   
     length 7.50908   
     axis 0 0 -20   XYZ
    dof rx
    limits (-10.0 170.0)
 end
 begin
     id 9 
     name rfoot
     direction -0.0683029 -0.187661 0.979856   
     length 2.41173  
     axis -90 -7.62852e-016 -20   XYZ
    dof rx rz
    limits (-45.0 90.0)
           (-20.0 70.0)
  end
  begin
     id 10 
     name rtoes
     direction -1.53528e-011 -4.21968e-011 1   
     length 1.21082   
     axis -90 -7.62852e-016 -20   XYZ
    dof rx
    limits (-90.0 20.0)
  end
  begin
     id 11 
     name lowerback
     direction 0.013823 0.995423 -0.0945635   
     length 2.04495   
     axis 0 0 0   XYZ
    dof rx ry rz
    limits (-20.0 45.0)
           (-30.0 30.0)
           (-30.0 30.0)
  end
  begin
     id 12 
     name upperback
     direction 0.0276657 0.9994 -0.020853   
     length 2.05008   
     axis 0 0 0   XYZ
    dof rx ry rz
    limits (-20.0 45.0)
           (-30.0 30.0)
           (-30.0 30.0)
  end
  begin
     id 13 
     name thorax
     direction 0.019782 0.999531 0.0233827   
     length 2.06488   
     axis 0 0 0   XYZ
    dof rx ry rz
    limits (-20.0 45.0)
           (-30.0 30.0)
           (-30.0 30.0)
  end
  begin
     id 14 
     name lowerneck
     direction -0.0308541 0.994709 0.0979874   
     length 1.75553   
     axis 0 0 0   XYZ
    dof rx ry rz
    limits (-20.0 45.0)
           (-30.0 30.0)
           (-30.0 30.0)
  end
  begin
     id 15 
     name upperneck
     direction 0.0588398 0.995804 -0.0700903   
     length 1.76878   
     axis 0 0 0   XYZ
    dof rx ry rz
    limits (-20.0 45.0)
           (-30.0 30.0)
           (-30.0 30.0)
  end
  begin
     id 16
     name head
     direction 0.0209966 0.999159 -0.0352225  
     length 1.77193  
     axis 0 0 0   XYZ
    dof rx ry rz
    limits (-20.0 45.0)
           (-30.0 30.0)
           (-30.0 30.0)
  end
  begin
     id 17 
     name lclavicle
     direction 0.938182 0.335073 -0.0868338  
     length 3.58396  
     axis 0 0 0   XYZ
    dof ry rz
    limits (-20.0 10.0)
           (0.0 20.0)
  end
  begin
     id 18 
     name lhumerus
     direction 1 -4.48971e-011 -1.26313e-017   
     length 4.983   
     axis 180 -30 -90   XYZ
    dof rx ry rz
    limits (-60.0 90.0)
           (-90.0 90.0)
           (-90.0 90.0)
  end
  begin
     id 19
     name lradius
     direction 1 -4.48948e-011 -5.89033e-027   
     length 3.48356   
     axis 180 -30 -90   XYZ
    dof rx
    limits (-10.0 170.0)
  end
  begin
     id 20
     name lwrist
     direction 1 -4.48977e-011 -1.48983e-026   
     length 1.74178   
     axis 9.0955e-015 90 90   XYZ
    dof ry
    limits (-180.0 0.0)
 end
  begin
     id 21 
     name lhand
     direction 1 -4.49046e-011 -2.98066e-026   
     length 0.715259   
     axis 1.90115e-014 90 90   XYZ
    dof rx rz
    limits (-90.0 90.0)
           (-45.0 45.0)
  end
  begin
     id 22 
     name lfingers
     direction 1 -4.48907e-011 -5.95731e-026   
     length 0.576661   
     axis 3.80223e-014 90 90   XYZ
    dof rx
    limits (0.0 90.0)
  end
  begin
     id 23
     name lthumb
     direction 0.707107 -6.34963e-011 0.707107   
     length 0.827973   
     axis -90 45 -3.84942e-014   XYZ
    dof rx rz
    limits (-45.0 45.0)
           (-45.0 45.0)
  end
  begin
     id 24 
     name rclavicle
     direction -0.909637 0.398485 -0.11735   
     length 3.44819  
     axis 0 0 0   XYZ 
    dof ry rz
    limits (-10.0 20.0)
           (-20.0 0.0)
  end
  begin
     id 25 
     name rhumerus
     direction -1 -4.48978e-011 -1.09333e-027  
     length 5.2419   
     axis 180 30 90   XYZ
    dof rx ry rz
    limits (-90.0 60.0)
           (-90.0 90.0)
           (-90.0 90.0)
  end
  begin
     id 26 
     name rradius
     direction -1 -4.48953e-011 -7.61841e-027   
     length 3.44417   
     axis 180 30 90   XYZ
    dof rx
    limits (-10.0 170.0)
  end
  begin
     id 27 
     name rwrist
     direction -1 -4.48977e-011 -1.48983e-026   
     length 1.72209   
     axis 9.0955e-015 -90 -90   XYZ
    dof ry
    limits (-180.0 0.0)
  end
  begin
     id 28
     name rhand
     direction -1 -4.49027e-011 -2.98038e-026   
     length 0.622529   
     axis 1.90115e-014 -90 -90   XYZ
    dof rx rz
    limits (-90.0 90.0)
           (-45.0 45.0)
  end
  begin
     id 29
     name rfingers
     direction -1 -4.48838e-011 -5.95531e-026   
     length 0.501899   
     axis 3.80223e-014 -90 -90   XYZ
    dof rx
    limits (0.0 90.0)
  end
  begin
     id 30
     name rthumb
     direction -0.707107 -6.34937e-011 0.707107   
     length 0.720629   
     axis -90 -45 3.84942e-014   XYZ
    dof rx rz
    limits (-45.0 45.0)
           (-45.0 45.0)
  end
:hierarchy
  begin
    root lhipjoint rhipjoint lowerback
    lhipjoint lfemur
    lfemur ltibia
    ltibia lfoot
    lfoot ltoes
    rhipjoint rfemur
    rfemur rtibia
    rtibia rfoot
    rfoot rtoes
    lowerback upperback
    upperback thorax
    thorax lowerneck lclavicle rclavicle
    lowerneck upperneck
    upperneck head
    lclavicle lhumerus
    lhumerus lradius
    lradius lwrist
    lwrist lhand lthumb
    lhand lfingers
    rclavicle rhumerus
    rhumerus rradius
    rradius rwrist
    rwrist rhand rthumb
    rhand rfingers
  end

#!OML:ASF H:\Terrain\Patient Classification 1\PLAYGROUND\JustinFriday\JustinFriday.ASF
:FULLY-SPECIFIED
:DEGREES
17
root 10.0851 17.3387 13.7737 19.1391 -87.9524 -11.7164
lowerback 10.1402 -1.05453 -5.28008
upperback 3.90285 -1.9942 1.41334
thorax -1.38 -1.09992 4.66612
lowerneck -3.29323 -6.79961 -7.4005
upperneck 9.70517 -9.18612 4.87303
head 4.00513 -4.60682 2.22883
rclavicle 1.58531e-014 3.8763e-014
rhumerus -32.1471 -7.60451 -80.6319
rradius 29.7307
rwrist -9.13353
rhand -12.4506 -22.6984
rfingers 7.12502
rthumb 13.6228 -52.2327
lclavicle 1.58531e-014 3.8763e-014
lhumerus -21.0272 4.78577 83.2416
lradius 42.0537
lwrist 5.98645
lhand -19.525 -4.70851
lfingers 7.12502
lthumb 6.79837 25.1623
rfemur -40.239 1.19499 21.2815
rtibia 26.8039
rfoot -3.99685 -11.9733
rtoes 19.8879
lfemur 11.6166 4.24645 -20.5293
ltibia 11.5302
lfoot -19.5597 -4.67721
ltoes 5.76508
18
root 9.95628 17.3462 13.7496 19.8973 -87.6865 -12.7443
lowerback 10.5964 -1.02033 -5.2006
upperback 4.04744 -1.97273 1.36785
thorax -1.48671 -1.09234 4.58424
lowerneck -3.23012 -6.99568 -7.70915
upperneck 9.59937 -9.47217 5.30638
head 4.01575 -4.73908 2.39358
rclavicle -2.98177e-014 1.19271e-015
rhumerus -31.9931 -6.26059 -81.0959
rradius 29.4419
rwrist -11.2593
rhand -13.1084 -22.9696
rfingers 7.12502
rthumb 12.9887 -52.5452
lclavicle -2.98177e-014 1.19271e-015
lhumerus -21.0606 4.05523 83.2093
lradius 42.1291
lwrist 6.16304
lhand -19.87 -4.84606
lfingers 7.12502
lthumb 6.46535 25.0353
rfemur -39.8261 1.11917 21.4592
rtibia 27.3496
rfoot -3.63226 -11.9903
rtoes 21.4472
lfemur 12.6302 3.85964 -20.2724
ltibia 10.8437
lfoot -18.7511 -4.63826
ltoes 5.43854
19
root 9.83095 17.3455 13.752 18.26 -87.3029 -10.9409
lowerback 10.6231 -1.25062 -4.87784
upperback 4.12721 -2.25084 1.24741
thorax -1.40514 -1.23268 4.3045
lowerneck -3.58683 -7.08413 -7.45359
upperneck 9.51899 -9.55313 5.10336
head 4.0338 -4.7707 2.27556
rclavicle 1.54058e-014 4.57205e-015
rhumerus -31.6452 -5.16324 -81.5768
rradius 28.8507
rwrist -12.4128
rhand -13.2347 -23.2706
rfingers 7.12502
rthumb 12.867 -52.854
lclavicle 1.54058e-014 4.57205e-015
lhumerus -20.9885 3.92941 83.0206
lradius 42.1217
lwrist 6.14908
lhand -19.5911 -4.54894
lfingers 7.12502
lthumb 6.7346 25.324
rfemur -40.0118 -0.431343 22.1255
rtibia 27.9511
rfoot -2.37228 -10.6985
rtoes 19.205
lfemur 13.2837 3.35646 -20.229
ltibia 9.88021
lfoot -17.7776 -4.64777
ltoes 5.8449
20
root 9.69783 17.3417 13.7404 13.6387 -86.9955 -6.34797
lowerback 10.7871 -1.42834 -5.22782
upperback 4.27626 -2.53137 1.38102
thorax -1.28452 -1.3874 4.67548
lowerneck -3.91556 -7.07546 -7.44653
upperneck 9.3139 -9.46603 4.73912
head 4.00299 -4.73537 2.16115
rclavicle 1.25234e-014 -3.97569e-015
rhumerus -31.7497 -5.83216 -81.1209
rradius 28.8775
rwrist -11.2449
rhand -13.1792 -23.1975
rfingers 7.12502
rthumb 12.9204 -52.7775
lclavicle 1.25234e-014 -3.97569e-015
lhumerus -20.8814 4.40859 83.1616
lradius 41.9569
lwrist 5.85422
lhand -19.2514 -4.44831
lfingers 7.12502
lthumb 7.06244 25.4139
rfemur -39.8945 -1.56044 22.4328
rtibia 28.45
rfoot -1.66749 -9.87822
rtoes 17.3773
lfemur 14.0737 2.8705 -20.2971
ltibia 9.17679
lfoot -17.0174 -4.72327
ltoes 6.99516
21
root 9.55402 17.3617 13.7107 17.6319 -86.7035 -10.5043
lowerback 11.045 -1.51944 -5.38556
upperback 4.39692 -2.68067 1.70585
thorax -1.25598 -1.47442 5.13051
lowerneck -3.90721 -7.01672 -7.98246
upperneck 9.02305 -9.3421 4.83135
head 3.93562 -4.68556 2.28442
rclavicle 1.03368e-014 -4.17448e-015
rhumerus -31.7217 -6.61131 -80.4007
rradius 28.5316
rwrist -9.77571
rhand -12.7578 -23.0405
rfingers 7.12502
rthumb 13.3266 -52.5943
lclavicle 1.03368e-014 -4.17448e-015
lhumerus -21.0453 4.77609 83.4211
lradius 41.9164
lwrist 5.63526
lhand -19.2175 -4.78217
lfingers 7.12502
lthumb 7.09522 25.0789
rfemur -39.3558 -1.16917 22.5189
rtibia 28.7119
rfoot -2.02386 -10.6
rtoes 21.1543
lfemur 14.5726 2.48891 -19.7997
ltibia 9.32724
lfoot -16.6679 -4.62755
ltoes 6.29744
22
root 9.41099 17.3893 13.6725 31.7228 -86.458 -24.4002
lowerback 10.8992 -1.50554 -4.86677
upperback 4.41358 -2.59793 1.97122
thorax -1.18238 -1.4338 5.0993
lowerneck -3.81844 -7.04405 -8.18017
upperneck 8.7465 -9.36827 4.93756
head 3.85319 -4.6992 2.35301
rclavicle -3.71727e-014 2.52457e-014
rhumerus -31.5757 -5.06456 -80.7505
rradius 28.296
rwrist -11.1544
rhand -12.3673 -23.2825
rfingers 7.12502
rthumb 13.703 -52.8113
lclavicle -3.71727e-014 2.52457e-014
lhumerus -21.2542 4.37104 83.4465
lradius 41.9481
lwrist 5.58651
lhand -19.335 -4.72089
lfingers 7.12502
lthumb 6.98174 25.144
rfemur -39.1865 0.177853 23.0903
rtibia 28.9333
rfoot -2.27901 -12.0431
rtoes 23.6236
lfemur 14.6634 2.42372 -18.6399
ltibia 9.46229
lfoot -15.9567 -4.4839
ltoes 3.5521
23
root 9.27308 17.4122 13.6534 46.8891 -86.0916 -39.1864
lowerback 10.5592 -1.35728 -3.80379
upperback 4.41922 -2.28077 2.08568
thorax -1.07244 -1.26777 4.56778
lowerneck -3.72982 -7.26266 -7.90837
upperneck 8.31215 -9.65853 4.85009
head 3.70856 -4.83504 2.27743
rclavicle 8.15017e-015 1.70955e-014
rhumerus -31.6514 -7.72815 -79.9358
rradius 27.922
rwrist -9.05216
rhand -12.4747 -22.9054
rfingers 7.12502
rthumb 13.5996 -52.4412
lclavicle 8.15017e-015 1.70955e-014
lhumerus -21.2435 3.42316 83.4339
lradius 41.825
lwrist 5.36854
lhand -19.7126 -4.23047
lfingers 7.12502
lthumb 6.61729 25.6461
rfemur -39.1005 0.924948 24.1577
rtibia 28.7938
rfoot -1.88099 -12.5496
rtoes 23.5868
lfemur 14.0981 2.58832 -17.4225
ltibia 10.5121
lfoot -15.3672 -4.84339
ltoes 3.13873
24
root 9.13562 17.4285 13.6468 41.2893 -86.0601 -33.5559
lowerback 10.7127 -1.41373 -3.92192
upperback 4.42929 -2.37443 1.95068
thorax -1.13666 -1.3129 4.50923
lowerneck -3.62546 -7.39777 -7.95754
upperneck 7.97323 -9.83386 4.90514
head 3.60526 -4.91983 2.30067
rclavicle 2.34566e-014 -7.95139e-015
rhumerus -31.7675 -8.07749 -79.7447
rradius 27.7343
rwrist -8.99825
rhand -13.6356 -23.5493
rfingers 7.12502
rthumb 12.4804 -53.1566
lclavicle 2.34566e-014 -7.95139e-015
lhumerus -21.3676 3.21173 83.4267
lradius 41.6133
lwrist 5.09191
lhand -19.8478 -4.37416
lfingers 7.12502
lthumb 6.48679 25.5065
rfemur -38.6199 -0.0593394 24.2538
rtibia 28.6071
rfoot -1.20823 -11.7998
rtoes 22.7664
lfemur 13.6829 1.93773 -17.6644
ltibia 11.9001
lfoot -14.8942 -5.07278
ltoes 3.93324
25
root 8.99707 17.4223 13.6197 50.7899 -85.4026 -43.2581
lowerback 11.1151 -1.47703 -3.2479
upperback 4.39663 -2.40141 2.24909
thorax -1.40405 -1.31776 4.461
lowerneck -3.6976 -7.49074 -8.47673
upperneck 8.21441 -9.94866 5.12829
head 3.73515 -4.98299 2.43217
rclavicle 2.90226e-014 -1.03368e-014
rhumerus -31.7627 -8.49614 -79.4414
rradius 27.0319
rwrist -8.28382
rhand -13.8783 -23.8615
rfingers 7.12502
rthumb 12.2465 -53.4829
lclavicle 2.90226e-014 -1.03368e-014
lhumerus -21.7483 3.47823 83.3461
lradius 41.4051
lwrist 4.99965
lhand -19.4309 -4.95225
lfingers 7.12502
lthumb 6.88921 24.9157
rfemur -37.8375 -0.403702 25.7836
rtibia 28.2582
rfoot -0.0325373 -11.3855
rtoes 18.1947
lfemur 13.4229 1.57795 -16.4685
ltibia 13.5438
lfoot -14.6078 -5.02099
ltoes 2.20383
